<?xml version="1.0" encoding="UTF-8" standalone="no"?>
<!DOCTYPE svg PUBLIC "-//W3C//DTD SVG 1.1//EN" "http://www.w3.org/Graphics/SVG/1.1/DTD/svg11.dtd">
<svg xmlns="http://www.w3.org/2000/svg" version="1.1" viewBox="0.00 0.00 500.00 500.00">
<path fill="#006181" d="
  M 500.00 237.14
  L 500.00 263.49
  Q 498.49 279.68 497.72 285.00
  C 488.30 350.07 454.76 407.69 402.70 447.97
  Q 350.16 488.62 284.74 497.72
  Q 276.90 498.81 263.12 500.00
  L 237.01 500.00
  Q 226.33 499.10 215.77 497.67
  C 99.69 481.93 9.82 385.98 1.01 269.49
  C -6.27 173.22 41.20 84.00 123.47 34.70
  Q 168.23 7.88 222.02 2.02
  Q 302.07 -6.70 371.02 31.26
  C 400.18 47.32 427.03 70.29 447.74 97.10
  Q 495.08 158.36 500.00 237.14
  Z
  M 493.05 250.18
  A 242.87 242.87 0.0 0 0 250.18 7.31
  A 242.87 242.87 0.0 0 0 7.31 250.18
  A 242.87 242.87 0.0 0 0 250.18 493.05
  A 242.87 242.87 0.0 0 0 493.05 250.18
  Z"
/>
<path fill="#006181" d="
  M 480.62 250.01
  A 230.44 230.44 0.0 0 1 250.18 480.45
  A 230.44 230.44 0.0 0 1 19.74 250.01
  A 230.44 230.44 0.0 0 1 250.18 19.57
  A 230.44 230.44 0.0 0 1 480.62 250.01
  Z
  M 100.31 405.96
  C 102.12 407.50 104.37 410.52 106.72 411.10
  A 0.97 0.97 0.0 0 0 107.66 409.49
  C 102.10 403.56 107.59 393.35 112.59 389.19
  C 119.01 383.84 125.11 390.54 129.35 394.90
  Q 129.73 395.30 129.36 395.70
  Q 120.13 405.95 110.90 416.23
  C 108.72 418.67 106.17 418.88 103.41 417.55
  A 0.38 0.38 0.0 0 0 103.00 418.18
  C 144.23 453.21 195.70 473.57 249.74 473.28
  Q 313.96 472.95 368.35 439.57
  Q 376.79 434.39 384.81 428.25
  Q 450.86 377.74 468.91 296.06
  Q 471.07 286.29 472.13 276.33
  Q 480.59 197.01 438.67 130.17
  C 403.46 74.02 341.87 35.45 275.84 28.14
  Q 212.64 21.14 155.89 47.62
  C 88.09 79.26 41.04 142.10 29.45 215.00
  C 17.98 287.22 42.52 360.82 96.18 411.54
  Q 96.53 411.87 96.75 411.45
  L 99.40 406.15
  Q 99.74 405.48 100.31 405.96
  Z
  M 116.52 394.21
  C 113.87 396.15 110.53 401.28 112.52 404.79
  A 0.54 0.54 0.0 0 0 113.39 404.88
  L 120.43 396.85
  A 0.67 0.65 -54.0 0 0 120.28 395.85
  L 117.47 394.17
  A 0.87 0.87 0.0 0 0 116.52 394.21
  Z"
/>
<rect fill="#006181" x="-3.80" y="-3.42" transform="translate(205.70,45.71) rotate(-10.7)" width="7.60" height="6.84" rx="0.55"/>
<path fill="#006181" d="
  M 226.74 72.31
  Q 218.45 67.97 216.96 59.22
  Q 215.50 50.67 223.68 48.41
  Q 227.13 47.46 236.61 46.77
  Q 237.16 46.73 237.23 47.27
  L 240.37 71.46
  Q 240.45 72.08 239.83 72.13
  Q 233.57 72.70 227.28 72.46
  A 1.42 1.32 -27.2 0 1 226.74 72.31
  Z
  M 225.61 55.50
  A 1.48 1.47 75.6 0 0 224.94 56.64
  Q 224.43 63.51 230.68 65.90
  A 0.83 0.83 0.0 0 0 231.80 65.01
  L 230.49 55.22
  Q 230.42 54.68 229.88 54.59
  Q 227.56 54.23 225.61 55.50
  Z"
/>
<path fill="#006181" d="
  M 257.50 73.23
  A 0.71 0.71 0.0 0 0 256.92 72.21
  C 248.37 71.58 243.13 61.93 244.08 54.51
  Q 244.70 49.68 248.67 47.85
  Q 250.81 46.86 255.97 47.04
  Q 260.64 47.21 264.85 47.15
  Q 266.23 47.13 266.17 48.51
  Q 265.52 63.37 264.97 75.50
  C 264.78 79.91 261.07 81.15 257.04 81.12
  Q 252.45 81.08 247.86 81.05
  A 0.86 0.85 -5.4 0 1 247.03 80.37
  L 245.87 75.05
  A 0.56 0.56 0.0 0 1 246.42 74.37
  Q 251.13 74.44 255.74 74.19
  Q 257.06 74.12 257.50 73.23
  Z
  M 252.06 57.97
  Q 252.33 63.00 256.88 65.51
  A 0.90 0.90 0.0 0 0 258.22 64.72
  L 258.20 54.72
  Q 258.20 54.15 257.66 53.96
  Q 255.12 53.07 253.48 54.29
  Q 251.93 55.43 252.06 57.97
  Z"
/>
<path fill="#006181" d="
  M 184.99 74.99
  A 0.60 0.60 0.0 0 0 185.90 75.29
  Q 191.32 71.48 191.35 65.39
  C 191.37 61.31 190.63 56.95 186.21 56.04
  Q 184.38 55.67 181.52 56.63
  Q 176.16 58.43 170.67 60.32
  Q 169.28 60.80 169.27 59.33
  L 169.27 53.19
  Q 169.27 52.65 169.78 52.49
  C 175.15 50.87 182.85 47.34 187.47 47.58
  C 194.54 47.96 199.52 55.15 199.97 62.25
  Q 200.74 74.65 190.20 81.71
  Q 187.60 83.46 179.58 85.36
  Q 179.06 85.48 178.90 84.98
  L 171.48 61.50
  A 0.45 0.44 73.0 0 1 171.77 60.94
  L 178.63 58.80
  A 0.95 0.94 -17.8 0 1 179.81 59.40
  L 184.99 74.99
  Z"
/>
<path fill="#006181" d="
  M 283.27 56.85
  L 281.03 56.48
  Q 280.43 56.38 280.34 56.98
  L 277.53 73.94
  A 0.64 0.64 0.0 0 1 276.81 74.47
  L 270.18 73.58
  Q 269.58 73.50 269.68 72.91
  L 273.65 49.05
  Q 273.72 48.61 274.16 48.63
  Q 283.27 48.96 289.75 51.44
  C 292.03 52.31 292.71 54.72 292.65 57.15
  Q 292.40 66.63 290.19 75.84
  Q 290.05 76.43 289.45 76.34
  L 282.81 75.42
  Q 282.28 75.34 282.36 74.81
  L 284.86 59.05
  A 1.93 1.93 0.0 0 0 283.27 56.85
  Z"
/>
<rect fill="#006181" x="-3.80" y="-12.76" transform="translate(209.44,63.49) rotate(-11.8)" width="7.60" height="25.52" rx="0.56"/>
<path fill="#006181" d="
  M 300.22 79.25
  Q 296.96 76.04 296.84 71.45
  C 296.65 64.20 298.59 52.66 308.82 55.35
  C 313.59 56.60 319.25 58.08 320.38 63.23
  C 322.31 72.09 309.43 88.30 300.22 79.25
  Z
  M 311.87 63.31
  L 308.02 62.08
  A 1.82 1.82 0.0 0 0 305.73 63.25
  L 305.49 64.02
  A 9.72 3.71 -72.2 0 0 306.05 74.40
  L 306.30 74.48
  A 9.72 3.71 -72.2 0 0 312.80 66.36
  L 313.05 65.60
  A 1.82 1.82 0.0 0 0 311.87 63.31
  Z"
/>
<path fill="#006181" d="
  M 332.34 73.18
  C 332.93 77.06 336.15 87.25 330.06 89.33
  C 325.84 90.76 322.20 88.17 318.60 86.21
  Q 318.14 85.96 318.23 85.45
  L 319.19 79.73
  A 0.49 0.49 0.0 0 1 319.91 79.38
  L 323.66 81.38
  A 1.52 1.51 6.7 0 0 325.84 79.66
  C 324.98 76.42 323.52 71.68 324.43 68.71
  C 326.67 61.35 334.69 64.89 338.65 67.91
  Q 338.98 68.16 338.92 68.57
  L 338.20 73.48
  A 0.77 0.76 -75.4 0 1 337.17 74.09
  L 333.14 72.54
  A 0.60 0.59 5.9 0 0 332.34 73.18
  Z"
/>
<rect fill="#006181" x="-3.69" y="-17.18" transform="translate(150.03,81.46) rotate(-30.8)" width="7.38" height="34.36" rx="0.77"/>
<path fill="#006181" d="
  M 349.29 81.51
  L 344.27 90.89
  A 0.63 0.62 -59.6 0 0 344.48 91.70
  L 347.48 93.62
  A 0.45 0.45 0.0 0 1 347.56 94.32
  L 343.45 98.41
  Q 343.13 98.73 342.70 98.56
  C 338.40 96.92 334.09 92.96 336.73 88.26
  Q 339.66 83.06 342.56 77.83
  A 0.64 0.64 0.0 0 0 342.39 77.02
  L 341.89 76.63
  Q 341.42 76.27 341.72 75.75
  L 344.01 71.76
  Q 344.31 71.24 344.90 71.12
  Q 347.51 70.61 347.89 67.72
  A 0.72 0.72 0.0 0 1 348.79 67.11
  L 355.59 68.84
  Q 356.24 69.01 355.93 69.60
  L 353.19 74.81
  Q 352.90 75.37 353.45 75.66
  L 355.66 76.81
  Q 356.23 77.11 355.94 77.69
  L 353.76 82.12
  Q 353.46 82.73 352.83 82.46
  L 350.02 81.26
  Q 349.54 81.05 349.29 81.51
  Z"
/>
<rect fill="#006181" x="-3.86" y="-3.58" transform="translate(367.53,77.99) rotate(35.4)" width="7.72" height="7.16" rx="0.79"/>
<path fill="#006181" d="
  M 131.63 106.05
  C 125.42 103.15 118.30 94.28 125.71 88.19
  Q 130.84 83.98 136.53 80.21
  Q 137.01 79.89 137.36 80.37
  L 151.48 99.83
  Q 151.83 100.31 151.36 100.68
  C 145.46 105.24 139.30 109.63 131.63 106.05
  Z
  M 130.61 93.66
  C 131.28 98.34 136.59 100.60 140.83 99.56
  Q 141.36 99.43 141.05 98.98
  L 135.16 90.50
  Q 134.77 89.93 134.21 90.34
  L 131.03 92.65
  A 1.07 1.07 0.0 0 0 130.61 93.66
  Z"
/>
<rect fill="#006181" x="-3.82" y="-12.66" transform="translate(357.06,92.95) rotate(35.0)" width="7.64" height="25.32" rx="0.27"/>
<path fill="#006181" d="
  M 417.80 250.15
  A 167.43 167.43 0.0 0 1 250.37 417.58
  A 167.43 167.43 0.0 0 1 82.94 250.15
  A 167.43 167.43 0.0 0 1 250.37 82.72
  A 167.43 167.43 0.0 0 1 417.80 250.15
  Z
  M 208.72 123.41
  C 208.21 124.47 206.31 126.09 206.01 127.00
  Q 205.83 127.56 206.30 127.66
  Q 225.50 131.82 245.16 131.65
  Q 245.71 131.65 245.70 131.09
  L 245.40 90.68
  A 0.68 0.68 0.0 0 0 244.69 90.00
  Q 237.97 90.29 231.25 91.02
  Q 229.22 91.24 228.67 91.94
  Q 216.93 106.55 208.72 123.41
  Z
  M 293.51 120.62
  Q 294.90 123.75 296.47 126.69
  Q 296.76 127.23 297.36 127.08
  L 314.99 122.47
  A 0.61 0.61 0.0 0 0 315.31 121.49
  Q 303.18 106.81 288.12 95.50
  C 285.40 93.46 283.06 92.90 279.82 92.68
  A 0.34 0.34 0.0 0 0 279.51 93.19
  Q 287.25 106.53 293.51 120.62
  Z
  M 199.88 124.89
  C 205.43 114.02 211.42 103.69 218.06 93.90
  A 0.37 0.37 0.0 0 0 217.70 93.32
  C 214.15 93.84 211.45 94.20 208.55 96.58
  Q 194.82 107.86 183.61 121.67
  Q 183.27 122.09 183.80 122.23
  L 197.59 125.91
  Q 199.14 126.32 199.88 124.89
  Z
  M 304.61 99.82
  Q 314.38 108.74 322.55 119.14
  A 1.07 1.04 60.0 0 0 323.76 119.48
  L 334.91 115.24
  Q 336.04 114.81 335.01 114.16
  Q 320.69 105.21 304.78 99.54
  A 0.17 0.17 0.0 0 0 304.61 99.82
  Z
  M 164.77 114.77
  A 0.49 0.49 0.0 0 0 164.87 115.65
  L 175.34 119.32
  A 0.63 0.62 30.0 0 0 176.00 119.15
  L 192.26 101.45
  A 0.26 0.25 10.8 0 0 191.98 101.04
  Q 177.68 106.55 164.77 114.77
  Z
  M 328.30 126.14
  C 333.27 132.78 337.75 139.93 341.80 147.12
  A 1.08 1.08 0.0 0 0 343.06 147.62
  L 365.74 140.43
  Q 367.08 140.01 366.11 138.99
  Q 355.85 128.26 343.56 119.90
  Q 343.11 119.59 342.60 119.79
  L 328.52 125.36
  A 0.51 0.51 0.0 0 0 328.30 126.14
  Z
  M 154.09 151.65
  C 159.75 143.06 164.64 134.10 170.82 125.92
  A 0.50 0.49 -61.3 0 0 170.60 125.15
  L 157.22 120.33
  A 1.04 1.04 0.0 0 0 156.28 120.45
  Q 142.36 129.90 131.24 142.53
  Q 130.84 142.98 131.38 143.24
  Q 141.98 148.46 153.28 151.94
  Q 153.79 152.09 154.09 151.65
  Z
  M 288.44 128.83
  L 289.51 128.39
  A 0.24 0.24 0.0 0 0 289.64 128.07
  L 289.57 127.90
  A 7.57 0.72 67.6 0 0 286.02 121.17
  L 285.83 121.25
  A 7.57 0.72 67.6 0 0 288.05 128.52
  L 288.12 128.70
  A 0.24 0.24 0.0 0 0 288.44 128.83
  Z
  M 187.12 157.87
  Q 189.50 148.39 195.77 133.14
  Q 195.93 132.74 195.51 132.63
  L 178.41 128.06
  A 0.62 0.61 -64.6 0 0 177.75 128.30
  Q 168.75 140.80 160.95 154.10
  Q 160.67 154.58 161.20 154.75
  Q 173.28 158.62 185.76 160.97
  Q 186.50 161.11 186.60 160.37
  Q 186.73 159.45 187.12 157.87
  Z
  M 307.30 156.93
  A 0.21 0.20 -13.6 0 0 307.54 157.07
  Q 321.27 154.34 334.61 150.10
  Q 335.21 149.91 334.90 149.35
  Q 328.89 138.57 321.41 128.75
  A 1.22 1.21 63.5 0 0 320.12 128.31
  L 300.10 133.66
  A 0.79 0.78 -19.3 0 0 299.58 134.73
  Q 304.25 145.55 307.30 156.93
  Z
  M 220.18 149.40
  C 225.47 147.56 229.31 147.35 233.80 146.99
  C 237.58 146.68 241.37 147.75 245.30 147.56
  A 0.56 0.56 0.0 0 0 245.84 147.00
  L 245.91 139.49
  Q 245.92 139.01 245.44 138.98
  C 236.90 138.52 227.80 138.37 219.90 137.32
  Q 211.65 136.21 203.63 134.48
  A 0.85 0.84 17.4 0 0 202.67 134.98
  Q 197.17 148.10 193.41 161.83
  A 0.47 0.46 11.4 0 0 193.80 162.41
  L 203.28 163.59
  Q 203.77 163.65 204.00 163.22
  Q 209.35 153.18 220.18 149.40
  Z
  M 292.75 135.78
  A 0.78 0.78 0.0 0 0 291.81 135.28
  L 290.17 135.71
  A 0.78 0.78 0.0 0 0 289.61 136.62
  L 293.89 159.02
  A 0.78 0.78 0.0 0 0 294.80 159.64
  L 299.81 158.72
  A 0.78 0.78 0.0 0 0 300.41 157.70
  L 292.75 135.78
  Z
  M 371.65 145.95
  L 346.30 154.06
  Q 345.54 154.30 345.89 155.01
  Q 352.23 167.88 357.02 181.41
  A 0.35 0.35 0.0 0 0 357.48 181.62
  Q 372.87 175.69 386.95 167.12
  A 0.56 0.54 -31.5 0 0 387.14 166.37
  Q 380.69 155.69 372.57 146.21
  Q 372.20 145.78 371.65 145.95
  Z
  M 139.71 184.85
  A 0.60 0.59 21.1 0 0 140.49 184.51
  L 150.02 159.55
  Q 150.45 158.43 149.32 158.06
  Q 137.65 154.29 126.71 148.76
  A 0.99 0.98 -57.3 0 0 125.50 149.03
  Q 117.87 158.77 111.74 169.50
  Q 111.46 169.98 111.93 170.29
  Q 125.12 178.87 139.71 184.85
  Z
  M 316.87 195.73
  C 328.08 192.48 339.03 189.28 349.93 184.67
  A 0.78 0.77 -21.4 0 0 350.36 183.70
  Q 345.62 170.32 339.31 157.59
  A 1.46 1.45 69.3 0 0 337.64 156.83
  L 310.43 163.93
  Q 309.44 164.19 309.71 165.18
  Q 313.72 180.01 316.03 195.19
  Q 316.14 195.94 316.87 195.73
  Z
  M 257.67 182.74
  A 21.88 21.88 0.0 0 0 235.79 160.86
  A 21.88 21.88 0.0 0 0 213.91 182.74
  A 21.88 21.88 0.0 0 0 235.79 204.62
  A 21.88 21.88 0.0 0 0 257.67 182.74
  Z
  M 178.60 196.99
  Q 180.14 182.48 184.30 168.52
  Q 184.45 168.02 183.93 167.91
  Q 170.76 165.29 157.99 161.14
  A 1.04 1.03 -70.6 0 0 156.70 161.76
  L 147.36 186.37
  A 1.19 1.19 0.0 0 0 148.03 187.90
  Q 162.55 193.77 177.72 197.60
  A 0.71 0.71 0.0 0 0 178.60 196.99
  Z
  M 309.04 196.84
  Q 306.58 181.34 302.70 166.15
  Q 302.54 165.53 301.92 165.65
  L 295.74 166.81
  Q 295.17 166.92 295.19 167.50
  Q 295.53 175.82 296.36 184.12
  C 296.89 189.35 296.65 194.58 296.77 199.92
  Q 296.78 200.53 297.38 200.39
  L 308.39 197.81
  Q 309.16 197.63 309.04 196.84
  Z
  M 199.91 196.22
  C 199.21 187.07 199.58 179.38 201.15 171.05
  Q 201.24 170.58 200.76 170.53
  L 191.98 169.47
  A 0.74 0.72 11.4 0 0 191.18 169.99
  Q 187.10 184.25 185.59 199.01
  A 0.67 0.66 -82.6 0 0 186.14 199.73
  L 195.16 201.30
  A 0.62 0.61 -63.3 0 0 195.72 201.11
  L 199.64 196.97
  A 0.97 0.93 -26.4 0 0 199.91 196.22
  Z
  M 359.08 189.31
  C 362.14 199.42 363.82 209.41 365.37 219.79
  C 366.54 227.66 366.53 235.97 367.04 244.11
  Q 367.08 244.74 367.71 244.74
  L 409.50 244.76
  Q 410.77 244.76 410.72 243.49
  Q 409.07 206.25 391.24 173.60
  Q 390.96 173.10 390.47 173.39
  Q 375.52 182.09 359.46 188.50
  Q 358.90 188.73 359.08 189.31
  Z
  M 105.13 182.38
  Q 91.14 211.77 90.05 244.02
  A 0.71 0.70 1.2 0 0 90.75 244.74
  L 130.25 244.75
  Q 130.74 244.75 130.77 244.26
  C 131.28 235.98 131.54 227.03 132.60 219.46
  Q 134.51 205.85 138.46 192.56
  Q 138.63 191.97 138.06 191.75
  Q 122.48 185.75 108.59 176.56
  Q 108.05 176.20 107.77 176.79
  Q 106.97 178.49 105.13 182.38
  Z
  M 351.48 191.71
  C 340.41 196.26 329.23 199.61 317.84 202.77
  Q 317.30 202.92 317.38 203.47
  Q 320.09 223.79 320.30 244.28
  A 0.47 0.46 89.4 0 0 320.76 244.74
  L 359.27 244.76
  A 0.55 0.55 0.0 0 0 359.82 244.20
  Q 359.58 217.74 352.54 192.23
  A 0.79 0.78 -18.7 0 0 351.48 191.71
  Z
  M 140.89 212.09
  Q 138.25 228.14 138.02 244.20
  Q 138.01 244.73 138.54 244.73
  L 164.80 244.73
  Q 165.32 244.73 165.58 244.27
  L 175.89 226.10
  A 1.78 1.77 62.1 0 0 176.11 225.37
  L 177.35 205.62
  A 0.87 0.87 0.0 0 0 176.70 204.72
  Q 160.90 200.70 145.77 194.65
  A 0.38 0.38 0.0 0 0 145.27 194.88
  Q 142.35 203.23 140.89 212.09
  Z
  M 296.81 208.23
  C 295.93 218.91 295.21 229.11 293.27 239.74
  A 1.27 1.26 -77.0 0 0 294.17 241.19
  Q 303.28 243.71 312.72 242.80
  Q 313.20 242.75 313.20 242.26
  Q 312.87 223.65 310.34 205.20
  Q 310.27 204.67 309.74 204.79
  L 297.28 207.69
  Q 296.85 207.79 296.81 208.23
  Z
  M 233.77 218.78
  A 12.36 12.36 0.0 0 0 221.41 206.42
  A 12.36 12.36 0.0 0 0 209.05 218.78
  A 12.36 12.36 0.0 0 0 221.41 231.14
  A 12.36 12.36 0.0 0 0 233.77 218.78
  Z
  M 189.42 208.66
  A 0.40 0.40 0.0 0 0 189.25 208.04
  L 185.17 206.41
  A 0.40 0.40 0.0 0 0 184.62 206.75
  L 183.86 214.60
  A 0.40 0.40 0.0 0 0 184.58 214.88
  L 189.42 208.66
  Z
  M 232.63 239.85
  C 230.63 239.52 229.00 239.08 226.96 239.35
  Q 221.25 240.10 218.50 240.72
  C 204.15 243.99 194.46 254.58 195.11 269.76
  Q 195.67 282.62 201.68 293.38
  C 206.20 301.47 215.18 305.32 223.38 299.59
  Q 229.64 295.21 233.46 288.61
  C 235.22 285.57 240.49 286.74 243.35 286.51
  Q 243.87 286.47 244.26 286.13
  C 252.60 278.90 258.01 266.38 253.18 255.63
  Q 247.19 242.31 232.63 239.85
  Z
  M 89.97 252.82
  Q 90.56 290.79 108.31 324.22
  A 0.36 0.35 -31.8 0 0 108.84 324.34
  Q 122.46 313.88 138.48 307.74
  A 1.35 1.35 0.0 0 0 139.30 306.11
  Q 136.04 294.66 133.65 282.64
  C 131.74 273.02 131.13 262.81 130.43 252.87
  Q 130.35 251.79 129.27 251.79
  L 90.98 251.80
  Q 89.95 251.80 89.97 252.82
  Z
  M 160.26 299.07
  C 155.21 283.95 156.26 267.59 162.19 252.85
  A 0.77 0.77 0.0 0 0 161.47 251.79
  L 138.18 251.79
  Q 137.55 251.79 137.58 252.42
  Q 138.66 278.75 146.11 304.02
  Q 146.27 304.54 146.78 304.36
  L 160.00 299.61
  Q 160.39 299.47 160.26 299.07
  Z
  M 354.56 295.24
  Q 359.44 274.15 359.96 252.52
  A 0.71 0.70 0.8 0 0 359.25 251.80
  L 320.77 251.79
  Q 320.38 251.79 320.36 252.18
  Q 319.59 269.56 317.23 286.78
  A 0.94 0.94 0.0 0 0 318.04 287.84
  Q 335.98 290.33 353.18 296.02
  Q 354.30 296.39 354.56 295.24
  Z
  M 367.04 252.26
  C 366.79 267.87 364.65 282.93 361.19 298.10
  Q 361.08 298.59 361.54 298.75
  Q 379.90 305.45 396.23 316.11
  Q 396.38 316.21 396.46 316.04
  Q 410.43 285.72 410.77 252.29
  A 0.50 0.49 0.6 0 0 410.27 251.79
  L 367.51 251.79
  Q 367.05 251.79 367.04 252.26
  Z
  M 282.24 271.18
  C 281.81 273.81 287.34 277.07 289.43 277.94
  Q 299.32 282.09 309.41 285.82
  Q 309.96 286.02 310.08 285.44
  L 310.61 282.87
  Q 310.73 282.29 310.26 281.92
  C 307.73 279.89 283.68 262.28 282.24 271.18
  Z
  M 317.39 295.67
  L 309.98 322.70
  Q 309.79 323.37 310.48 323.48
  Q 326.33 326.03 341.85 330.14
  Q 342.38 330.28 342.61 329.78
  Q 348.39 317.03 352.30 303.57
  A 0.39 0.38 -72.3 0 0 352.06 303.10
  Q 335.49 297.32 318.07 295.21
  Q 317.53 295.15 317.39 295.67
  Z
  M 289.25 305.39
  A 0.46 0.46 0.0 0 0 288.61 305.77
  L 287.48 319.68
  A 0.46 0.46 0.0 0 0 287.88 320.18
  L 302.74 322.06
  A 0.46 0.46 0.0 0 0 303.25 321.69
  L 305.05 312.88
  A 0.46 0.46 0.0 0 0 304.78 312.37
  L 289.25 305.39
  Z
  M 358.89 306.24
  Q 355.05 319.29 349.44 331.67
  A 0.73 0.72 20.5 0 0 349.90 332.66
  Q 365.16 337.16 379.41 344.20
  A 1.22 1.21 29.0 0 0 380.99 343.75
  L 392.70 324.50
  Q 393.72 322.82 392.05 321.77
  Q 379.17 313.68 364.20 307.34
  Q 361.43 306.17 359.68 305.78
  Q 359.07 305.64 358.89 306.24
  Z
  M 164.53 308.04
  Q 163.77 306.15 161.64 306.59
  Q 158.31 307.29 148.88 311.36
  Q 148.42 311.56 148.58 312.03
  Q 152.17 322.95 157.24 333.28
  A 0.43 0.42 68.5 0 0 157.74 333.50
  L 178.48 327.38
  Q 179.15 327.18 178.64 326.71
  C 173.23 321.69 167.27 314.90 164.53 308.04
  Z
  M 112.56 330.41
  A 0.85 0.84 -34.2 0 0 112.35 331.48
  Q 117.43 340.62 124.10 348.67
  Q 124.44 349.07 124.89 348.82
  Q 137.18 341.84 150.31 336.57
  Q 150.74 336.40 150.56 335.98
  L 141.68 314.49
  Q 141.55 314.16 141.21 314.28
  Q 125.57 320.03 112.56 330.41
  Z
  M 291.44 327.82
  A 0.35 0.35 0.0 0 0 291.06 328.27
  L 292.98 334.39
  A 0.35 0.35 0.0 0 1 292.77 334.82
  L 276.76 340.67
  A 0.35 0.35 0.0 0 0 276.73 341.32
  L 293.55 349.36
  A 0.35 0.35 0.0 0 0 294.03 349.16
  L 300.96 329.52
  A 0.35 0.35 0.0 0 0 300.67 329.05
  L 291.44 327.82
  Z
  M 307.88 331.21
  L 300.57 351.84
  A 0.59 0.58 27.2 0 0 300.80 352.53
  Q 303.95 354.67 305.02 354.86
  Q 315.51 356.75 325.58 360.73
  A 0.69 0.69 0.0 0 0 326.41 360.47
  Q 333.68 349.44 339.28 337.47
  Q 339.59 336.80 338.87 336.62
  Q 324.06 332.93 308.97 330.57
  Q 308.16 330.44 307.88 331.21
  Z
  M 242.30 341.90
  A 8.76 8.76 0.0 0 0 233.54 333.14
  A 8.76 8.76 0.0 0 0 224.78 341.90
  A 8.76 8.76 0.0 0 0 233.54 350.66
  A 8.76 8.76 0.0 0 0 242.30 341.90
  Z
  M 161.51 339.65
  A 0.84 0.84 0.0 0 0 161.00 340.86
  Q 167.36 352.51 175.42 363.04
  Q 175.88 363.64 176.25 362.99
  L 190.76 337.94
  A 0.82 0.82 0.0 0 0 190.55 336.88
  L 185.76 333.20
  A 1.33 1.32 55.8 0 0 184.59 332.97
  L 161.51 339.65
  Z
  M 333.00 363.12
  A 0.22 0.22 0.0 0 0 333.09 363.44
  L 353.15 372.76
  Q 353.56 372.95 353.91 372.65
  Q 365.52 362.77 375.22 351.00
  A 0.74 0.73 -57.4 0 0 374.98 349.87
  Q 361.37 343.31 346.82 339.18
  A 0.49 0.48 -69.1 0 0 346.25 339.44
  Q 340.57 351.81 333.00 363.12
  Z
  M 169.84 368.27
  A 0.56 0.56 0.0 0 0 169.95 367.49
  Q 161.13 355.99 154.16 343.28
  Q 153.90 342.81 153.41 343.00
  Q 140.96 347.73 129.42 354.37
  Q 128.93 354.65 129.30 355.08
  Q 140.87 368.42 154.99 379.03
  Q 155.40 379.34 155.81 379.03
  L 169.84 368.27
  Z
  M 190.34 380.64
  A 0.56 0.55 -21.7 0 0 189.94 381.56
  Q 201.21 394.43 214.74 405.49
  Q 216.48 406.91 218.67 407.35
  Q 239.63 411.48 261.02 410.05
  A 1.90 1.88 -74.9 0 0 262.47 409.21
  Q 272.80 393.75 281.21 377.18
  A 0.54 0.54 0.0 0 0 280.71 376.39
  C 272.40 376.62 264.46 377.01 255.75 376.97
  C 243.77 376.92 231.89 377.91 220.01 378.20
  C 208.96 378.46 200.53 380.20 190.34 380.64
  Z
  M 289.09 376.81
  Q 281.37 393.36 271.23 408.53
  Q 270.84 409.12 271.55 409.07
  Q 276.13 408.73 280.55 407.61
  Q 283.16 406.94 285.47 405.02
  Q 295.93 396.35 307.63 384.12
  Q 311.17 380.42 313.15 377.41
  Q 313.56 376.80 312.82 376.79
  L 289.47 376.57
  A 0.42 0.41 12.0 0 0 289.09 376.81
  Z
  M 346.26 377.95
  L 323.18 377.03
  A 1.20 1.19 18.9 0 0 322.18 377.51
  Q 312.36 390.80 299.94 401.74
  A 0.39 0.39 0.0 0 0 300.32 402.41
  Q 323.07 394.73 342.40 381.64
  Q 344.67 380.10 346.43 378.41
  Q 346.88 377.97 346.26 377.95
  Z
  M 161.90 383.23
  A 0.33 0.33 0.0 0 0 161.90 383.74
  L 163.14 384.79
  A 0.33 0.33 0.0 0 0 163.64 384.70
  L 166.12 380.50
  A 0.33 0.33 0.0 0 0 165.62 380.08
  L 161.90 383.23
  Z
  M 165.55 384.48
  Q 163.50 384.80 165.25 385.91
  C 175.41 392.33 187.36 398.34 199.17 401.84
  Q 199.40 401.91 199.23 401.73
  L 180.89 382.50
  A 0.89 0.88 63.3 0 0 180.12 382.24
  L 165.55 384.48
  Z"
/>
<path fill="#006181" d="
  M 372.58 98.87
  C 367.91 102.28 367.74 109.20 372.45 112.45
  Q 372.94 112.78 372.47 113.14
  L 368.16 116.39
  Q 367.67 116.76 367.18 116.40
  C 358.49 110.09 360.83 98.00 368.31 92.08
  C 372.81 88.52 379.63 93.22 382.89 96.49
  Q 383.22 96.83 383.02 97.26
  L 380.44 102.70
  A 0.57 0.57 0.0 0 1 379.48 102.81
  Q 377.19 99.92 373.68 98.71
  A 1.20 1.17 36.0 0 0 372.58 98.87
  Z"
/>
<path fill="#006181" d="
  M 120.33 114.52
  C 116.61 113.37 110.55 113.87 107.97 110.59
  C 103.49 104.88 109.49 101.68 112.86 98.19
  Q 113.26 97.77 113.77 98.04
  L 118.48 100.56
  A 0.75 0.75 0.0 0 1 118.58 101.82
  L 115.89 103.85
  A 1.20 1.20 0.0 0 0 116.41 105.99
  C 121.25 106.80 130.42 107.29 130.04 114.45
  C 129.87 117.66 125.26 121.24 123.01 123.36
  A 0.84 0.84 0.0 0 1 121.97 123.46
  L 116.97 120.21
  Q 116.58 119.95 116.93 119.64
  L 120.72 116.38
  A 1.09 1.09 0.0 0 0 120.33 114.52
  Z"
/>
<path fill="#006181" d="
  M 105.60 114.57
  C 104.22 117.25 103.84 118.93 106.35 121.12
  Q 111.35 125.49 116.23 129.72
  A 0.83 0.82 -47.0 0 1 116.27 130.93
  L 111.83 135.37
  A 0.58 0.58 0.0 0 1 111.03 135.39
  L 93.15 119.26
  Q 92.75 118.91 93.12 118.53
  L 98.74 112.67
  A 1.10 1.03 81.8 0 0 98.95 112.37
  L 100.16 109.90
  A 0.65 0.65 0.0 0 1 101.17 109.69
  L 105.36 113.35
  Q 105.96 113.87 105.60 114.57
  Z"
/>
<path fill="#006181" d="
  M 404.88 120.48
  C 396.48 123.78 393.95 133.09 399.45 140.07
  Q 399.92 140.67 399.24 141.01
  L 393.76 143.75
  A 1.32 1.31 -32.3 0 1 392.14 143.39
  C 383.25 132.20 389.62 116.24 402.28 111.82
  C 408.43 109.67 415.98 117.04 418.69 121.82
  Q 418.94 122.27 418.64 122.68
  L 415.06 127.54
  A 0.75 0.75 0.0 0 1 413.87 127.57
  C 411.61 124.74 409.34 121.60 405.75 120.45
  Q 405.31 120.31 404.88 120.48
  Z"
/>
<path fill="#006181" d="
  M 98.44 140.20
  A 0.48 0.48 0.0 0 0 99.24 140.28
  L 102.85 135.65
  A 0.61 0.61 0.0 0 1 103.81 135.65
  L 107.01 139.74
  Q 107.32 140.14 107.09 140.59
  C 104.65 145.43 99.68 149.75 94.00 149.64
  Q 84.85 149.46 80.12 142.29
  C 76.52 136.82 85.91 122.61 91.93 125.79
  Q 99.47 129.76 98.24 138.48
  Q 98.10 139.51 98.44 140.20
  Z
  M 92.35 140.23
  L 91.03 134.03
  A 0.70 0.70 0.0 0 0 90.20 133.49
  L 90.11 133.51
  A 3.71 3.65 78.0 0 0 87.32 137.90
  L 87.38 138.21
  A 3.71 3.65 78.0 0 0 91.72 141.08
  L 91.81 141.06
  A 0.70 0.70 0.0 0 0 92.35 140.23
  Z"
/>
<path fill="#006181" d="
  M 408.12 154.40
  L 410.80 159.49
  Q 411.14 160.15 410.43 160.37
  L 405.77 161.75
  Q 405.23 161.91 404.85 161.50
  Q 396.04 152.07 403.45 141.96
  C 405.36 139.35 411.91 134.81 415.94 136.12
  C 420.85 137.73 424.38 143.67 425.43 148.51
  C 426.52 153.49 420.48 156.26 416.50 156.20
  Q 413.01 156.15 408.54 153.97
  Q 407.67 153.55 408.12 154.40
  Z
  M 410.25 147.31
  Q 413.06 148.98 416.36 148.73
  A 1.31 1.31 0.0 0 0 417.44 146.83
  Q 416.28 144.52 413.68 144.09
  A 1.09 1.07 -59.7 0 0 412.82 144.32
  L 410.19 146.47
  Q 409.62 146.94 410.25 147.31
  Z"
/>
<path fill="#006181" d="
  M 82.07 161.05
  L 70.39 151.00
  A 0.38 0.38 0.0 0 1 70.30 150.55
  L 73.54 143.99
  A 0.38 0.38 0.0 0 1 74.14 143.88
  L 92.58 162.29
  A 0.38 0.38 0.0 0 1 92.64 162.74
  L 88.84 169.63
  A 0.38 0.38 0.0 0 1 88.44 169.82
  L 63.00 164.74
  A 0.38 0.38 0.0 0 1 62.75 164.17
  L 66.61 157.77
  A 0.38 0.38 0.0 0 1 67.04 157.60
  L 81.72 161.70
  A 0.38 0.38 0.0 0 0 82.07 161.05
  Z"
/>
<path fill="#006181" d="
  M 426.83 166.84
  L 411.24 174.15
  A 0.36 0.35 63.4 0 1 410.77 173.99
  L 407.72 167.80
  Q 407.44 167.24 408.01 166.98
  L 430.01 156.68
  Q 430.48 156.46 430.74 156.92
  Q 434.70 163.89 436.52 169.75
  Q 438.18 175.06 433.41 177.62
  Q 425.42 181.92 417.01 185.59
  A 0.53 0.52 -25.0 0 1 416.33 185.35
  L 413.33 179.45
  Q 413.07 178.93 413.59 178.68
  Q 420.50 175.36 427.42 172.21
  C 429.71 171.16 429.04 168.50 427.73 167.02
  Q 427.35 166.60 426.83 166.84
  Z"
/>
<rect fill="#006181" x="-3.43" y="-3.83" transform="translate(54.98,169.00) rotate(24.8)" width="6.86" height="7.66" rx="0.72"/>
<rect fill="#006181" x="-12.73" y="-3.92" transform="translate(71.75,176.38) rotate(24.3)" width="25.46" height="7.84" rx="0.78"/>
<circle fill="#006181" cx="235.98" cy="182.93" r="7.47"/>
<path fill="#006181" d="
  M 444.72 190.48
  L 445.45 193.15
  Q 445.65 193.87 444.93 194.06
  L 439.81 195.40
  Q 439.31 195.53 439.14 195.04
  L 438.29 192.46
  A 0.65 0.65 0.0 0 0 437.46 192.05
  L 428.74 194.94
  A 2.29 2.28 -16.7 0 0 427.25 197.69
  L 427.70 199.42
  A 0.67 0.66 82.4 0 1 427.07 200.25
  L 421.53 200.27
  Q 421.07 200.27 420.94 199.84
  C 420.29 197.71 419.22 195.12 419.62 193.01
  C 420.52 188.16 430.89 186.14 435.03 184.74
  Q 435.59 184.55 435.54 183.96
  L 435.49 183.32
  Q 435.44 182.82 435.93 182.68
  L 440.76 181.29
  Q 441.23 181.16 441.48 181.58
  Q 441.75 182.03 442.26 182.19
  Q 442.65 182.32 443.22 182.10
  Q 444.65 181.54 446.17 181.30
  Q 446.77 181.21 447.11 181.72
  L 450.67 187.07
  A 0.62 0.62 0.0 0 1 450.35 188.00
  L 445.12 189.72
  A 0.62 0.62 0.0 0 0 444.72 190.48
  Z"
/>
<path fill="#006181" d="
  M 59.30 196.16
  L 75.75 201.40
  A 0.74 0.73 -72.4 0 1 76.23 202.33
  L 74.32 208.05
  A 0.71 0.70 -72.2 0 1 73.46 208.50
  L 50.51 201.80
  Q 50.07 201.67 50.18 201.22
  Q 52.71 190.67 54.65 186.76
  Q 56.89 182.26 62.46 183.80
  Q 71.04 186.16 79.54 188.73
  A 0.64 0.64 0.0 0 1 79.97 189.53
  L 78.16 195.53
  A 0.87 0.86 -73.5 0 1 77.09 196.12
  L 61.34 191.51
  A 0.84 0.83 -61.9 0 0 60.47 191.78
  Q 59.09 193.47 58.96 195.65
  Q 58.93 196.04 59.30 196.16
  Z"
/>
<path fill="#006181" d="
  M 431.53 215.03
  L 432.64 221.07
  Q 432.73 221.60 432.20 221.59
  L 426.48 221.53
  Q 425.93 221.53 425.77 221.00
  Q 422.48 209.84 429.84 203.67
  Q 434.66 199.64 440.28 199.51
  Q 447.84 199.33 449.90 208.66
  Q 450.77 212.58 449.94 216.37
  C 449.15 220.00 445.97 220.54 442.37 220.59
  C 438.13 220.65 434.78 217.72 432.07 214.76
  A 0.31 0.31 0.0 0 0 431.53 215.03
  Z
  M 436.39 209.32
  Q 438.12 211.89 440.94 213.00
  A 1.33 1.33 0.0 0 0 442.76 211.72
  L 442.70 209.63
  Q 442.69 208.99 442.15 208.65
  Q 439.29 206.79 436.50 208.70
  Q 436.14 208.95 436.39 209.32
  Z"
/>
<path fill="#006181" d="
  M 63.25 220.95
  L 38.25 217.38
  A 0.73 0.73 0.0 0 1 37.63 216.57
  L 38.57 209.29
  A 0.57 0.56 -81.9 0 1 39.21 208.80
  L 71.97 213.48
  Q 72.43 213.54 72.40 214.01
  Q 71.92 223.44 70.10 230.01
  C 67.50 239.37 56.70 239.40 48.87 236.77
  C 44.61 235.33 40.32 232.37 36.18 229.93
  A 0.90 0.88 -70.8 0 1 35.76 229.03
  L 36.84 221.98
  Q 37.07 220.46 38.37 221.29
  Q 44.86 225.43 51.39 228.19
  C 54.00 229.29 56.49 229.13 59.25 229.07
  C 62.80 229.00 63.67 224.18 63.77 221.58
  Q 63.80 221.03 63.25 220.95
  Z"
/>
<circle fill="#006181" cx="221.40" cy="218.78" r="3.38"/>
<path fill="#006181" d="
  M 452.65 232.71
  Q 453.87 234.12 454.04 236.05
  Q 454.08 236.60 453.54 236.71
  L 448.30 237.73
  Q 447.25 237.94 446.83 236.96
  C 445.54 234.02 444.88 232.87 441.33 233.28
  Q 434.79 234.03 428.28 234.83
  A 0.60 0.59 -6.5 0 1 427.61 234.30
  L 426.96 227.99
  Q 426.90 227.37 427.51 227.30
  L 451.23 224.47
  Q 451.73 224.41 451.90 224.88
  Q 453.13 228.36 452.42 231.81
  Q 452.31 232.31 452.65 232.71
  Z"
/>
<path fill="#006181" d="
  M 65.96 299.22
  L 80.54 298.76
  A 0.34 0.34 0.0 0 1 80.74 299.38
  L 68.71 307.62
  A 0.34 0.34 0.0 0 0 68.58 308.02
  L 73.52 321.74
  A 0.34 0.34 0.0 0 1 73.00 322.12
  L 61.44 313.22
  A 0.34 0.34 0.0 0 0 61.03 313.22
  L 49.50 322.16
  A 0.34 0.34 0.0 0 1 48.97 321.78
  L 53.87 308.04
  A 0.34 0.34 0.0 0 0 53.74 307.65
  L 41.68 299.45
  A 0.34 0.34 0.0 0 1 41.88 298.83
  L 56.46 299.24
  A 0.34 0.34 0.0 0 0 56.79 298.99
  L 60.86 284.99
  A 0.34 0.34 0.0 0 1 61.51 284.99
  L 65.63 298.98
  A 0.34 0.34 0.0 0 0 65.96 299.22
  Z"
/>
<path fill="#006181" d="
  M 441.81 299.36
  L 455.94 298.73
  A 0.54 0.54 0.0 0 1 456.26 299.72
  L 444.46 307.52
  A 0.54 0.54 0.0 0 0 444.25 308.16
  L 449.22 321.40
  A 0.54 0.54 0.0 0 1 448.38 322.01
  L 437.32 313.20
  A 0.54 0.54 0.0 0 0 436.64 313.20
  L 425.58 322.01
  A 0.54 0.54 0.0 0 1 424.74 321.40
  L 429.71 308.16
  A 0.54 0.54 0.0 0 0 429.50 307.52
  L 417.70 299.72
  A 0.54 0.54 0.0 0 1 418.02 298.73
  L 432.15 299.36
  A 0.54 0.54 0.0 0 0 432.69 298.97
  L 436.46 285.33
  A 0.54 0.54 0.0 0 1 437.50 285.33
  L 441.27 298.97
  A 0.54 0.54 0.0 0 0 441.81 299.36
  Z"
/>
<path fill="#006181" d="
  M 82.90 353.63
  C 85.59 354.74 95.27 356.29 92.03 350.34
  Q 89.70 346.03 86.92 342.10
  A 0.70 0.70 0.0 0 1 87.23 341.04
  L 93.03 338.69
  A 1.22 1.21 63.3 0 1 94.52 339.19
  C 96.60 342.63 100.44 347.43 100.79 351.49
  Q 101.03 354.23 99.12 356.56
  Q 94.08 362.72 85.28 361.51
  Q 79.26 360.68 77.17 359.60
  Q 75.73 358.86 74.67 358.46
  A 0.87 0.87 0.0 0 0 73.86 358.55
  L 68.77 361.99
  A 0.60 0.60 0.0 0 1 67.92 361.81
  L 64.75 356.82
  Q 64.44 356.33 64.94 356.02
  L 85.94 343.22
  A 0.73 0.73 0.0 0 1 86.95 343.48
  L 89.31 347.67
  A 1.01 1.00 -30.6 0 1 88.96 349.01
  L 82.83 352.84
  Q 82.10 353.30 82.90 353.63
  Z"
/>
<path fill="#006181" d="
  M 424.00 357.00
  L 409.03 347.97
  A 0.55 0.54 -57.0 0 1 408.87 347.19
  L 411.71 343.02
  Q 412.03 342.54 412.52 342.85
  L 433.14 355.60
  A 0.68 0.68 0.0 0 1 433.35 356.56
  L 426.96 366.11
  A 0.89 0.87 5.8 0 1 426.56 366.43
  Q 422.02 368.19 419.55 367.20
  Q 411.29 363.87 404.92 354.59
  Q 404.68 354.24 404.91 353.87
  L 407.48 349.81
  Q 407.85 349.22 408.31 349.74
  C 412.09 354.07 417.11 360.48 421.47 360.36
  Q 423.84 360.30 424.34 357.77
  Q 424.44 357.26 424.00 357.00
  Z"
/>
<path fill="#006181" d="
  M 396.98 363.80
  L 390.94 359.42
  A 0.76 0.76 0.0 0 1 390.75 358.38
  L 393.27 354.61
  Q 393.67 354.02 394.24 354.44
  L 420.65 374.15
  Q 421.14 374.52 420.82 375.05
  Q 419.41 377.41 417.28 379.77
  C 408.73 389.23 385.46 375.90 397.04 364.82
  A 0.66 0.66 0.0 0 0 396.98 363.80
  Z
  M 410.94 374.22
  L 403.54 368.68
  Q 402.95 368.24 402.53 368.84
  L 400.68 371.44
  Q 400.20 372.12 400.73 372.75
  Q 404.45 377.26 410.33 376.51
  Q 413.46 376.11 410.94 374.22
  Z"
/>
<rect fill="#006181" x="-3.41" y="-3.04" transform="translate(104.36,360.81) rotate(-36.8)" width="6.82" height="6.08" rx="0.77"/>
<rect fill="#006181" x="-12.74" y="-3.00" transform="translate(89.77,371.65) rotate(-36.9)" width="25.48" height="6.00" rx="0.71"/>
<path fill="#006181" d="
  M 104.76 380.80
  L 103.71 379.25
  Q 103.35 378.70 102.86 379.14
  L 90.05 390.59
  Q 89.60 390.99 89.18 390.57
  L 85.76 387.19
  Q 85.26 386.70 85.78 386.23
  L 103.37 370.36
  A 0.84 0.84 0.0 0 1 104.52 370.39
  Q 106.59 372.46 108.75 374.56
  C 115.19 380.79 112.53 383.73 107.09 388.67
  Q 101.94 393.35 96.81 398.06
  Q 96.38 398.45 95.96 398.04
  L 92.45 394.64
  A 0.57 0.57 0.0 0 1 92.46 393.81
  L 104.52 382.79
  A 1.53 1.53 0.0 0 0 104.76 380.80
  Z"
/>
<path fill="#006181" d="
  M 387.24 388.22
  L 398.89 399.93
  Q 399.39 400.44 398.89 400.95
  L 395.35 404.52
  A 0.54 0.54 0.0 0 1 394.58 404.52
  L 377.68 387.57
  Q 377.27 387.17 377.67 386.76
  Q 381.00 383.24 384.29 379.80
  Q 387.97 375.96 392.14 379.33
  Q 399.67 385.42 406.11 392.63
  Q 406.54 393.10 406.08 393.54
  L 402.60 396.87
  A 0.69 0.68 44.7 0 1 401.65 396.87
  C 398.21 393.56 393.33 387.35 389.18 385.44
  A 1.72 1.72 0.0 0 0 387.24 388.22
  Z"
/>
<path fill="#006181" d="
  M 365.18 405.58
  C 361.28 398.43 368.84 394.71 373.02 390.61
  A 1.00 1.00 0.0 0 1 374.49 390.68
  L 389.67 408.69
  Q 390.07 409.18 389.69 409.68
  C 387.03 413.17 383.41 415.64 378.78 415.08
  Q 369.77 414.00 365.18 405.58
  Z
  M 371.54 400.98
  A 1.35 1.35 0.0 0 0 371.06 402.62
  Q 373.72 408.95 380.54 408.45
  A 0.48 0.48 0.0 0 0 380.87 407.67
  L 374.38 399.81
  A 0.70 0.69 52.7 0 0 373.45 399.68
  L 371.54 400.98
  Z"
/>
<rect fill="#006181" x="-3.00" y="-17.15" transform="translate(130.61,406.09) rotate(36.8)" width="6.00" height="34.30" rx="0.26"/>
<path fill="#006181" d="
  M 354.00 414.41
  L 363.44 429.07
  Q 363.73 429.52 363.28 429.82
  L 359.18 432.55
  Q 358.59 432.95 358.21 432.34
  L 349.24 417.84
  A 0.68 0.68 0.0 0 0 348.36 417.60
  L 346.27 418.67
  Q 345.72 418.95 346.05 419.47
  L 355.13 434.20
  A 0.73 0.73 0.0 0 1 354.89 435.20
  L 351.36 437.34
  Q 350.68 437.76 350.26 437.08
  L 337.53 416.53
  A 0.56 0.56 0.0 0 1 337.73 415.75
  Q 345.50 411.25 353.17 406.31
  Q 354.88 405.21 356.02 405.19
  C 361.19 405.13 368.60 419.81 371.22 423.96
  A 0.80 0.79 57.7 0 1 370.98 425.05
  L 367.27 427.43
  Q 366.85 427.69 366.59 427.28
  L 357.38 413.02
  Q 356.95 412.35 356.23 412.69
  L 354.22 413.63
  Q 353.67 413.89 354.00 414.41
  Z"
/>
<path fill="#006181" d="
  M 153.79 412.30
  A 0.89 0.89 0.0 0 1 154.00 413.50
  L 141.11 433.35
  Q 140.81 433.81 140.33 433.55
  C 134.72 430.51 130.99 427.98 131.60 421.24
  C 132.12 415.50 136.36 405.55 142.88 406.19
  C 146.51 406.54 150.63 409.91 153.79 412.30
  Z
  M 141.58 413.25
  C 138.88 415.82 136.81 420.90 139.03 424.37
  Q 139.33 424.84 139.64 424.37
  L 145.58 415.39
  Q 146.00 414.75 145.30 414.45
  L 142.24 413.13
  A 0.60 0.60 0.0 0 0 141.58 413.25
  Z"
/>
<path fill="#006181" d="
  M 326.94 428.96
  L 334.29 444.51
  Q 334.60 445.15 333.96 445.47
  L 329.62 447.65
  A 0.57 0.57 0.0 0 1 328.84 447.38
  L 314.74 417.46
  Q 314.47 416.88 315.05 416.60
  L 319.37 414.54
  Q 319.97 414.25 320.26 414.86
  L 323.53 421.89
  A 0.91 0.91 0.0 0 0 324.93 422.20
  C 330.46 417.63 333.97 420.96 336.69 426.18
  Q 340.38 433.29 343.66 440.58
  Q 343.89 441.10 343.38 441.35
  L 339.36 443.33
  A 1.00 1.00 0.0 0 1 338.01 442.85
  L 331.29 428.52
  A 1.79 1.78 67.2 0 0 329.05 427.60
  L 327.21 428.29
  Q 326.71 428.48 326.94 428.96
  Z"
/>
<path fill="#006181" d="
  M 153.48 432.45
  C 153.88 428.73 152.79 424.52 153.76 421.38
  C 156.05 414.02 160.73 415.52 165.81 418.74
  Q 166.38 419.11 166.20 419.77
  L 164.85 424.66
  A 0.56 0.55 -70.6 0 1 164.09 425.03
  L 160.90 423.63
  A 0.71 0.71 0.0 0 0 159.91 424.29
  C 159.99 428.17 160.60 434.44 158.79 437.49
  C 156.00 442.19 151.13 440.17 147.12 437.08
  Q 146.75 436.80 146.88 436.36
  L 148.37 431.41
  A 0.57 0.57 0.0 0 1 149.19 431.07
  L 152.64 432.89
  A 0.57 0.57 0.0 0 0 153.48 432.45
  Z"
/>
<path fill="#006181" d="
  M 177.39 424.02
  L 179.05 424.79
  A 0.62 0.62 0.0 0 1 179.36 425.60
  L 177.20 430.41
  Q 176.94 431.00 176.36 430.70
  L 174.87 429.91
  A 0.66 0.65 -63.8 0 0 173.97 430.22
  L 169.53 440.07
  A 0.78 0.78 0.0 0 0 169.91 441.10
  L 172.07 442.11
  A 0.53 0.53 0.0 0 1 172.27 442.90
  L 169.15 447.20
  Q 168.84 447.63 168.32 447.51
  C 158.18 445.12 165.04 434.59 168.04 428.93
  Q 168.45 428.15 168.28 427.57
  Q 168.12 427.03 167.65 426.71
  Q 167.23 426.43 167.43 425.98
  L 169.42 421.56
  Q 169.64 421.09 170.16 421.04
  L 171.16 420.95
  A 0.74 0.73 7.5 0 0 171.79 420.47
  L 172.82 417.65
  A 0.86 0.85 9.3 0 1 173.59 417.10
  L 179.00 416.97
  A 0.73 0.73 0.0 0 1 179.67 418.04
  L 177.07 423.07
  A 0.70 0.70 0.0 0 0 177.39 424.02
  Z"
/>
<path fill="#006181" d="
  M 186.00 435.31
  L 180.87 451.52
  A 0.85 0.85 0.0 0 1 179.74 452.06
  L 175.25 450.30
  Q 174.66 450.07 174.86 449.46
  L 185.17 418.45
  A 0.86 0.85 18.5 0 1 186.26 417.91
  L 190.46 419.32
  Q 191.17 419.55 190.93 420.26
  L 188.61 427.40
  Q 188.42 427.97 188.99 428.19
  L 194.07 430.17
  Q 194.53 430.34 194.82 430.74
  Q 196.88 433.60 195.77 437.51
  Q 192.86 447.65 190.53 454.74
  Q 190.36 455.24 189.85 455.10
  L 184.79 453.67
  Q 184.32 453.54 184.48 453.09
  Q 186.77 446.25 189.02 439.42
  C 189.79 437.09 189.74 434.83 186.71 434.79
  Q 186.17 434.79 186.00 435.31
  Z"
/>
<path fill="#006181" d="
  M 313.26 426.79
  L 314.52 426.20
  Q 315.21 425.88 315.47 426.60
  L 317.22 431.58
  Q 317.50 432.38 316.67 432.54
  L 315.12 432.84
  A 0.64 0.63 -15.5 0 0 314.64 433.68
  L 318.24 443.70
  Q 318.40 444.16 318.89 444.09
  L 321.86 443.68
  Q 322.41 443.60 322.45 444.15
  L 322.92 449.61
  Q 322.97 450.19 322.43 450.43
  Q 314.51 453.97 312.13 445.80
  Q 310.80 441.21 309.31 436.71
  Q 309.14 436.20 308.72 435.87
  Q 305.13 433.04 306.13 428.40
  Q 306.23 427.94 306.09 427.49
  L 305.32 425.01
  A 1.03 1.03 0.0 0 1 305.64 423.92
  L 309.46 420.67
  A 0.48 0.47 -30.7 0 1 310.21 420.86
  L 312.32 426.40
  A 0.70 0.69 -22.4 0 0 313.26 426.79
  Z"
/>
<path fill="#006181" d="
  M 272.22 441.92
  L 275.48 427.19
  A 0.32 0.32 0.0 0 1 275.75 426.94
  L 282.63 425.99
  A 0.32 0.32 0.0 0 1 282.98 426.38
  L 279.31 441.79
  A 0.32 0.32 0.0 0 0 279.34 442.02
  L 288.80 459.48
  A 0.32 0.32 0.0 0 1 288.56 459.95
  L 281.35 460.86
  A 0.32 0.32 0.0 0 1 281.03 460.69
  L 272.71 444.90
  A 0.32 0.32 0.0 0 0 272.11 445.09
  L 274.41 461.83
  A 0.32 0.32 0.0 0 1 274.13 462.19
  L 268.01 462.78
  A 0.32 0.32 0.0 0 1 267.67 462.51
  L 262.91 429.08
  A 0.32 0.32 0.0 0 1 263.18 428.72
  L 269.29 427.70
  A 0.32 0.32 0.0 0 1 269.66 427.98
  L 271.59 441.90
  A 0.32 0.32 0.0 0 0 272.22 441.92
  Z"
/>
<path fill="#006181" d="
  M 289.15 446.84
  C 284.27 434.07 292.00 432.39 301.83 430.47
  Q 302.48 430.35 302.64 430.99
  L 308.30 454.21
  Q 308.43 454.74 307.93 454.95
  C 303.85 456.74 299.21 457.74 295.32 454.97
  Q 291.12 451.98 289.15 446.84
  Z
  M 294.48 439.92
  A 0.96 0.96 0.0 0 0 294.20 440.62
  Q 294.34 446.99 299.82 449.96
  A 0.67 0.67 0.0 0 0 300.79 449.23
  L 298.58 439.25
  Q 298.47 438.77 297.98 438.71
  Q 295.91 438.46 294.48 439.92
  Z"
/>
<path fill="#006181" d="
  M 211.42 460.38
  C 208.36 459.65 204.40 459.27 202.34 456.88
  Q 197.57 451.37 198.50 444.28
  Q 199.15 439.27 200.55 436.83
  C 203.80 431.20 211.89 434.40 216.97 435.35
  A 0.73 0.73 0.0 0 1 217.55 436.22
  L 212.61 459.63
  Q 212.40 460.61 211.42 460.38
  Z
  M 204.93 443.42
  Q 203.87 448.12 206.66 452.24
  A 0.77 0.76 33.8 0 0 208.04 451.97
  L 210.14 441.83
  Q 210.22 441.43 209.86 441.24
  C 207.22 439.82 205.59 440.47 204.93 443.42
  Z"
/>
<path fill="#006181" d="
  M 227.79 443.42
  A 0.38 0.37 -79.7 0 0 227.32 443.75
  L 226.01 461.25
  Q 225.97 461.85 225.38 461.85
  L 220.62 461.86
  Q 219.87 461.87 219.94 461.12
  L 222.06 437.24
  Q 222.10 436.78 222.56 436.72
  Q 230.09 435.79 235.27 438.42
  C 236.81 439.20 237.36 441.85 237.35 443.70
  Q 237.32 453.21 235.90 462.60
  Q 235.82 463.17 235.24 463.11
  L 230.62 462.59
  Q 230.09 462.53 230.12 461.99
  L 231.14 445.20
  A 1.05 1.05 0.0 0 0 230.38 444.13
  L 227.79 443.42
  Z"
/>
<rect fill="#006181" x="-2.79" y="-6.03" transform="translate(243.96,461.31) rotate(12.5)" width="5.58" height="12.06" rx="0.27"/>
</svg>
